<svg width="0" height="0" class="hidden">
    <symbol viewBox="0 0 27 27" fill="none" xmlns="http://www.w3.org/2000/svg" id="logo">
        <g clip-path="url(#clip0_144_90)">
        <path d="M15.4286 5.78572L12.5145 11.6119C10.5994 11.718 9.02571 12.0266 8.24657 12.4354L6.42214 16.0862L3.85714 21.2143H0L7.71429 5.78572H15.4286Z" fill="#2274FB"/>
        <path d="M19.7968 12.4779L17.9241 16.2231L15.4286 21.2143H11.5714L14.5106 15.3379C13.7565 15.2589 12.9272 15.2145 12.0536 15.2145C11.5869 15.2145 11.1336 15.228 10.6959 15.2511L7.71429 21.2143H3.85714L6.42214 16.0862L8.24657 12.4354C9.02571 12.0266 10.5994 11.718 12.5145 11.6119C12.9851 11.5849 13.4769 11.5714 13.9821 11.5714C14.8172 11.5714 15.6118 11.6081 16.3389 11.6775C17.9087 11.8241 19.1623 12.1153 19.7968 12.4779Z" fill="#0341A7"/>
        <path d="M27 5.78572L19.2857 21.2143H15.4286L17.9241 16.2231L19.7968 12.4779C19.1623 12.1153 17.9087 11.8241 16.3389 11.6775L19.2857 5.78572H27Z" fill="#2274FB"/>
        </g>
        <defs>
        <clipPath id="clip0_144_90">
        <rect width="27" height="27" fill="#F7F7F7"/>
        </clipPath>
        </defs>
    </symbol>
    <symbol viewBox="0 0 100 100" fill="none" xmlns="http://www.w3.org/2000/svg" id="analytics">
        <mask id="path-1-outside-1_112_216" maskUnits="userSpaceOnUse" x="4.25" y="4.25" width="92" height="92" fill="black">
        <rect fill="#F7F7F7" x="4.25" y="4.25" width="92" height="92"/>
        <path fill-rule="evenodd" clip-rule="evenodd" d="M6.25 6.25H12.5V87.5H93.75V93.75H12.5C10.8424 93.75 9.25268 93.0915 8.08058 91.9194C6.90848 90.7473 6.25 89.1576 6.25 87.5V6.25ZM71.875 28.125H93.75V50H87.5V38.7812L61.5937 64.7187C61.3032 65.0117 60.9576 65.2441 60.5768 65.4028C60.196 65.5614 59.7875 65.6431 59.375 65.6431C58.9625 65.6431 58.554 65.5614 58.1732 65.4028C57.7924 65.2441 57.4468 65.0117 57.1563 64.7187L43.75 51.2812L23.1562 71.875L18.75 67.4688L41.5312 44.6562C41.8218 44.3633 42.1674 44.1309 42.5482 43.9722C42.929 43.8136 43.3375 43.7319 43.75 43.7319C44.1625 43.7319 44.571 43.8136 44.9518 43.9722C45.3326 44.1309 45.6782 44.3633 45.9688 44.6562L59.375 58.0938L83.0938 34.375H71.875V28.125Z"/>
        </mask>
        <path fill-rule="evenodd" clip-rule="evenodd" d="M6.25 6.25H12.5V87.5H93.75V93.75H12.5C10.8424 93.75 9.25268 93.0915 8.08058 91.9194C6.90848 90.7473 6.25 89.1576 6.25 87.5V6.25ZM71.875 28.125H93.75V50H87.5V38.7812L61.5937 64.7187C61.3032 65.0117 60.9576 65.2441 60.5768 65.4028C60.196 65.5614 59.7875 65.6431 59.375 65.6431C58.9625 65.6431 58.554 65.5614 58.1732 65.4028C57.7924 65.2441 57.4468 65.0117 57.1563 64.7187L43.75 51.2812L23.1562 71.875L18.75 67.4688L41.5312 44.6562C41.8218 44.3633 42.1674 44.1309 42.5482 43.9722C42.929 43.8136 43.3375 43.7319 43.75 43.7319C44.1625 43.7319 44.571 43.8136 44.9518 43.9722C45.3326 44.1309 45.6782 44.3633 45.9688 44.6562L59.375 58.0938L83.0938 34.375H71.875V28.125Z" fill="#F7F7F7"/>
        <path d="M12.5 6.25H14.5V4.25H12.5V6.25ZM6.25 6.25V4.25H4.25V6.25H6.25ZM12.5 87.5H10.5V89.5H12.5V87.5ZM93.75 87.5H95.75V85.5H93.75V87.5ZM93.75 93.75V95.75H95.75V93.75H93.75ZM8.08058 91.9194L9.4948 90.5052H9.4948L8.08058 91.9194ZM93.75 28.125H95.75V26.125H93.75V28.125ZM71.875 28.125V26.125H69.875V28.125H71.875ZM93.75 50V52H95.75V50H93.75ZM87.5 50H85.5V52H87.5V50ZM87.5 38.7812H89.5V33.9487L86.0849 37.3679L87.5 38.7812ZM61.5937 64.7187L60.1787 63.3054L60.1737 63.3104L61.5937 64.7187ZM60.5768 65.4028L59.8077 63.5566L59.8076 63.5566L60.5768 65.4028ZM58.1732 65.4028L58.9424 63.5566L58.9423 63.5566L58.1732 65.4028ZM57.1563 64.7187L58.5763 63.3103L58.5721 63.3062L57.1563 64.7187ZM43.75 51.2812L45.1659 49.8687L43.7516 48.4512L42.3358 49.867L43.75 51.2812ZM23.1562 71.875L21.742 73.2892L23.1562 74.7034L24.5705 73.2892L23.1562 71.875ZM18.75 67.4688L17.3348 66.0555L15.9225 67.4697L17.3358 68.883L18.75 67.4688ZM41.5312 44.6562L42.9464 46.0695L42.9512 46.0647L41.5312 44.6562ZM42.5482 43.9722L41.7791 42.126L41.779 42.126L42.5482 43.9722ZM44.9518 43.9722L45.721 42.126L45.7209 42.126L44.9518 43.9722ZM45.9688 44.6562L44.5487 46.0647L44.5529 46.0688L45.9688 44.6562ZM59.375 58.0938L57.9591 59.5063L59.3734 60.9238L60.7892 59.508L59.375 58.0938ZM83.0938 34.375L84.508 35.7892L87.9222 32.375H83.0938V34.375ZM71.875 34.375H69.875V36.375H71.875V34.375ZM12.5 4.25H6.25V8.25H12.5V4.25ZM14.5 87.5V6.25H10.5V87.5H14.5ZM93.75 85.5H12.5V89.5H93.75V85.5ZM95.75 93.75V87.5H91.75V93.75H95.75ZM12.5 95.75H93.75V91.75H12.5V95.75ZM6.66637 93.3336C8.21354 94.8808 10.312 95.75 12.5 95.75V91.75C11.3728 91.75 10.2918 91.3022 9.4948 90.5052L6.66637 93.3336ZM4.25 87.5C4.25 89.688 5.11919 91.7865 6.66637 93.3336L9.4948 90.5052C8.69777 89.7082 8.25 88.6272 8.25 87.5H4.25ZM4.25 6.25V87.5H8.25V6.25H4.25ZM93.75 26.125H71.875V30.125H93.75V26.125ZM95.75 50V28.125H91.75V50H95.75ZM87.5 52H93.75V48H87.5V52ZM85.5 38.7812V50H89.5V38.7812H85.5ZM63.0088 66.1321L88.9151 40.1946L86.0849 37.3679L60.1787 63.3054L63.0088 66.1321ZM61.3459 67.249C61.9705 66.9888 62.5373 66.6075 63.0138 66.1271L60.1737 63.3104C60.0691 63.4158 59.9447 63.4995 59.8077 63.5566L61.3459 67.249ZM59.375 67.6431C60.0516 67.6431 60.7214 67.5092 61.346 67.249L59.8076 63.5566C59.6706 63.6137 59.5235 63.6431 59.375 63.6431V67.6431ZM57.404 67.249C58.0286 67.5092 58.6984 67.6431 59.375 67.6431V63.6431C59.2265 63.6431 59.0794 63.6137 58.9424 63.5566L57.404 67.249ZM55.7362 66.1271C56.2127 66.6075 56.7795 66.9888 57.4041 67.249L58.9423 63.5566C58.8053 63.4995 58.6809 63.4158 58.5763 63.3104L55.7362 66.1271ZM42.3341 52.6938L55.7404 66.1313L58.5721 63.3062L45.1659 49.8687L42.3341 52.6938ZM24.5705 73.2892L45.1642 52.6955L42.3358 49.867L21.742 70.4608L24.5705 73.2892ZM17.3358 68.883L21.742 73.2892L24.5705 70.4608L20.1642 66.0545L17.3358 68.883ZM40.1161 43.243L17.3348 66.0555L20.1652 68.882L42.9464 46.0695L40.1161 43.243ZM41.779 42.126C41.1545 42.3862 40.5877 42.7675 40.1113 43.2478L42.9512 46.0647C43.0558 45.9592 43.1803 45.8755 43.3174 45.8184L41.779 42.126ZM43.75 41.7319C43.0734 41.7319 42.4036 41.8658 41.7791 42.126L43.3173 45.8184C43.4544 45.7613 43.6015 45.7319 43.75 45.7319V41.7319ZM45.7209 42.126C45.0964 41.8658 44.4266 41.7319 43.75 41.7319V45.7319C43.8985 45.7319 44.0456 45.7613 44.1827 45.8184L45.7209 42.126ZM47.3887 43.2478C46.9123 42.7675 46.3455 42.3862 45.721 42.126L44.1826 45.8184C44.3197 45.8755 44.4442 45.9592 44.5488 46.0647L47.3887 43.2478ZM60.7909 56.6812L47.3846 43.2437L44.5529 46.0688L57.9591 59.5063L60.7909 56.6812ZM81.6795 32.9608L57.9608 56.6795L60.7892 59.508L84.508 35.7892L81.6795 32.9608ZM71.875 36.375H83.0938V32.375H71.875V36.375ZM69.875 28.125V34.375H73.875V28.125H69.875Z" fill="#2274FB" mask="url(#path-1-outside-1_112_216)"/>
    </symbol>
    <symbol viewBox="0 0 100 100" fill="none" xmlns="http://www.w3.org/2000/svg" id="local">
        <mask id="path-1-outside-1_112_226" maskUnits="userSpaceOnUse" x="13.625" y="4.25" width="73" height="93" fill="black">
        <rect fill="#F7F7F7" x="13.625" y="4.25" width="73" height="93"/>
        <path fill-rule="evenodd" clip-rule="evenodd" d="M23.75 62.8125L50 93.75L76.5625 62.5L77.5 61.25C81.875 55.3125 84.375 48.125 84.375 40.625C84.375 21.5625 69.0625 6.25 50 6.25C30.9375 6.25 15.625 21.5625 15.625 40.625C15.625 48.125 18.125 55.3125 22.8125 61.25C22.8125 61.25 23.75 62.5 23.75 62.8125ZM28.4375 58.75C28.125 58.4375 27.5 57.5 27.5 57.5C23.75 52.5 21.875 46.875 21.875 40.625C21.875 25 34.375 12.5 50 12.5C65.625 12.5 78.125 25 78.125 40.625C78.125 46.875 76.25 52.5 72.5 57.5C72.5 57.5 71.5625 58.4375 71.5625 58.75L50 84.0625L28.4375 58.75ZM34.375 40.625C34.375 49.375 41.25 56.25 50 56.25C58.75 56.25 65.625 49.375 65.625 40.625C65.625 31.875 58.75 25 50 25C41.25 25 34.375 31.875 34.375 40.625Z"/>
        </mask>
        <path fill-rule="evenodd" clip-rule="evenodd" d="M23.75 62.8125L50 93.75L76.5625 62.5L77.5 61.25C81.875 55.3125 84.375 48.125 84.375 40.625C84.375 21.5625 69.0625 6.25 50 6.25C30.9375 6.25 15.625 21.5625 15.625 40.625C15.625 48.125 18.125 55.3125 22.8125 61.25C22.8125 61.25 23.75 62.5 23.75 62.8125ZM28.4375 58.75C28.125 58.4375 27.5 57.5 27.5 57.5C23.75 52.5 21.875 46.875 21.875 40.625C21.875 25 34.375 12.5 50 12.5C65.625 12.5 78.125 25 78.125 40.625C78.125 46.875 76.25 52.5 72.5 57.5C72.5 57.5 71.5625 58.4375 71.5625 58.75L50 84.0625L28.4375 58.75ZM34.375 40.625C34.375 49.375 41.25 56.25 50 56.25C58.75 56.25 65.625 49.375 65.625 40.625C65.625 31.875 58.75 25 50 25C41.25 25 34.375 31.875 34.375 40.625Z" fill="#F7F7F7"/>
        <path d="M50 93.75L48.475 95.044L49.9986 96.8397L51.5239 95.0453L50 93.75ZM23.75 62.8125H21.75V63.5467L22.225 64.1065L23.75 62.8125ZM76.5625 62.5L78.0864 63.7953L78.1259 63.7488L78.1625 63.7L76.5625 62.5ZM77.5 61.25L79.1 62.45L79.1051 62.4432L79.1101 62.4364L77.5 61.25ZM22.8125 61.25L24.4125 60.05L24.3976 60.0302L24.3823 60.0107L22.8125 61.25ZM27.5 57.5L29.1641 56.3906L29.1333 56.3444L29.1 56.3L27.5 57.5ZM28.4375 58.75L29.96 57.4531L29.9082 57.3923L29.8517 57.3358L28.4375 58.75ZM72.5 57.5L73.9142 58.9142L74.0147 58.8137L74.1 58.7L72.5 57.5ZM71.5625 58.75L73.085 60.0469L73.5625 59.4864V58.75H71.5625ZM50 84.0625L48.4775 85.3594L50 87.1467L51.5225 85.3594L50 84.0625ZM51.525 92.456L25.275 61.5185L22.225 64.1065L48.475 95.044L51.525 92.456ZM75.0386 61.2047L48.4761 92.4547L51.5239 95.0453L78.0864 63.7953L75.0386 61.2047ZM75.9 60.05L74.9625 61.3L78.1625 63.7L79.1 62.45L75.9 60.05ZM82.375 40.625C82.375 47.677 80.0244 54.4524 75.8899 60.0636L79.1101 62.4364C83.7256 56.1726 86.375 48.573 86.375 40.625H82.375ZM50 8.25C67.9579 8.25 82.375 22.6671 82.375 40.625H86.375C86.375 20.4579 70.1671 4.25 50 4.25V8.25ZM17.625 40.625C17.625 22.6671 32.0421 8.25 50 8.25V4.25C29.8329 4.25 13.625 20.4579 13.625 40.625H17.625ZM24.3823 60.0107C19.9716 54.4239 17.625 47.6724 17.625 40.625H13.625C13.625 48.5776 16.2784 56.2011 21.2427 62.4893L24.3823 60.0107ZM25.75 62.8125C25.75 62.3725 25.6103 62.022 25.5667 61.9129C25.5002 61.7468 25.423 61.5956 25.3593 61.4788C25.23 61.2418 25.0755 60.9999 24.9454 60.8047C24.8106 60.6025 24.6786 60.4157 24.5821 60.2816C24.5332 60.2138 24.4923 60.1578 24.4629 60.1179C24.4482 60.098 24.4363 60.082 24.4278 60.0705C24.4235 60.0647 24.4201 60.0601 24.4175 60.0567C24.4162 60.055 24.4152 60.0535 24.4143 60.0524C24.4139 60.0519 24.4135 60.0514 24.4132 60.051C24.4131 60.0508 24.4129 60.0506 24.4128 60.0504C24.4128 60.0504 24.4127 60.0502 24.4127 60.0502C24.4126 60.0501 24.4125 60.05 22.8125 61.25C21.2125 62.45 21.2124 62.4499 21.2124 62.4498C21.2124 62.4498 21.2123 62.4497 21.2123 62.4497C21.2122 62.4496 21.2121 62.4495 21.2121 62.4495C21.212 62.4494 21.212 62.4493 21.212 62.4494C21.2121 62.4495 21.2124 62.4498 21.2129 62.4505C21.2139 62.4518 21.2157 62.4543 21.2183 62.4577C21.2235 62.4647 21.2317 62.4759 21.2427 62.4907C21.2646 62.5205 21.2968 62.5645 21.3359 62.6188C21.4151 62.7288 21.5175 62.874 21.6171 63.0235C21.7214 63.1798 21.8012 63.309 21.8477 63.3942C21.8719 63.4386 21.8679 63.4363 21.8528 63.3984C21.8447 63.3784 21.8244 63.3257 21.8042 63.2483C21.7868 63.1813 21.75 63.0241 21.75 62.8125H25.75ZM27.5 57.5C25.8359 58.6094 25.8359 58.6095 25.836 58.6095C25.836 58.6096 25.8361 58.6096 25.8361 58.6097C25.8362 58.6098 25.8363 58.6099 25.8364 58.6101C25.8365 58.6104 25.8368 58.6107 25.837 58.6111C25.8376 58.6119 25.8382 58.6129 25.8391 58.6142C25.8407 58.6166 25.843 58.62 25.8458 58.6242C25.8515 58.6326 25.8594 58.6444 25.8693 58.6592C25.8892 58.6887 25.9174 58.7302 25.9519 58.7807C26.0206 58.8812 26.1165 59.0197 26.2241 59.1703C26.4021 59.4195 26.7301 59.871 27.0233 60.1642L29.8517 57.3358C29.8652 57.3492 29.8297 57.313 29.7379 57.195C29.6581 57.0924 29.5679 56.9698 29.479 56.8453C29.3913 56.7225 29.3114 56.6071 29.2532 56.522C29.2242 56.4797 29.2011 56.4456 29.1856 56.4226C29.1779 56.4111 29.172 56.4025 29.1684 56.397C29.1665 56.3943 29.1653 56.3923 29.1645 56.3912C29.1642 56.3907 29.164 56.3904 29.1639 56.3903C29.1638 56.3902 29.1638 56.3902 29.1639 56.3903C29.1639 56.3903 29.1639 56.3903 29.164 56.3904C29.164 56.3904 29.164 56.3905 29.164 56.3905C29.1641 56.3905 29.1641 56.3906 27.5 57.5ZM19.875 40.625C19.875 47.3077 21.8904 53.3538 25.9 58.7L29.1 56.3C25.6096 51.6462 23.875 46.4423 23.875 40.625H19.875ZM50 10.5C33.2704 10.5 19.875 23.8954 19.875 40.625H23.875C23.875 26.1046 35.4796 14.5 50 14.5V10.5ZM80.125 40.625C80.125 23.8954 66.7296 10.5 50 10.5V14.5C64.5204 14.5 76.125 26.1046 76.125 40.625H80.125ZM74.1 58.7C78.1096 53.3538 80.125 47.3077 80.125 40.625H76.125C76.125 46.4423 74.3904 51.6462 70.9 56.3L74.1 58.7ZM73.5625 58.75C73.5625 59.1458 73.4333 59.413 73.4187 59.4447C73.3849 59.518 73.3608 59.5507 73.3731 59.5323C73.3961 59.4978 73.454 59.4211 73.5498 59.3094C73.6385 59.2058 73.7317 59.1046 73.8054 59.0269C73.8414 58.9888 73.8709 58.9584 73.8905 58.9384C73.9002 58.9284 73.9073 58.9212 73.9115 58.917C73.9135 58.9149 73.9148 58.9136 73.9153 58.9131C73.9155 58.9129 73.9156 58.9128 73.9154 58.913C73.9153 58.9131 73.9152 58.9133 73.915 58.9135C73.9149 58.9136 73.9148 58.9137 73.9146 58.9138C73.9146 58.9139 73.9145 58.914 73.9144 58.914C73.9143 58.9141 73.9142 58.9142 72.5 57.5C71.0858 56.0858 71.0857 56.0859 71.0856 56.086C71.0855 56.0861 71.0854 56.0862 71.0853 56.0863C71.0851 56.0865 71.0849 56.0867 71.0847 56.0869C71.0843 56.0873 71.0838 56.0878 71.0832 56.0883C71.0822 56.0894 71.0809 56.0907 71.0793 56.0923C71.0762 56.0954 71.0723 56.0994 71.0675 56.1042C71.0579 56.1139 71.0449 56.1271 71.029 56.1434C70.9972 56.1759 70.9535 56.2211 70.9016 56.2759C70.7995 56.3836 70.6584 56.5363 70.5127 56.7062C70.3741 56.868 70.1977 57.0843 70.0449 57.3134C69.9693 57.4268 69.872 57.5841 69.7869 57.7684C69.721 57.9112 69.5625 58.2761 69.5625 58.75H73.5625ZM51.5225 85.3594L73.085 60.0469L70.04 57.4531L48.4775 82.7656L51.5225 85.3594ZM26.915 60.0469L48.4775 85.3594L51.5225 82.7656L29.96 57.4531L26.915 60.0469ZM50 54.25C42.3546 54.25 36.375 48.2704 36.375 40.625H32.375C32.375 50.4796 40.1454 58.25 50 58.25V54.25ZM63.625 40.625C63.625 48.2704 57.6454 54.25 50 54.25V58.25C59.8546 58.25 67.625 50.4796 67.625 40.625H63.625ZM50 27C57.6454 27 63.625 32.9796 63.625 40.625H67.625C67.625 30.7704 59.8546 23 50 23V27ZM36.375 40.625C36.375 32.9796 42.3546 27 50 27V23C40.1454 23 32.375 30.7704 32.375 40.625H36.375Z" fill="#2274FB" mask="url(#path-1-outside-1_112_226)"/>
    </symbol>
    <symbol viewBox="0 0 100 100" fill="none" xmlns="http://www.w3.org/2000/svg" id="need">
        <mask id="path-1-outside-1_112_236" maskUnits="userSpaceOnUse" x="3.25" y="4.25" width="93" height="92" fill="black">
        <rect fill="#F7F7F7" x="3.25" y="4.25" width="93" height="92"/>
        <path fill-rule="evenodd" clip-rule="evenodd" d="M56.25 37.5L67.4563 26.8313L71.875 31.25L53.125 50L34.375 31.25L38.7937 26.8313L50 37.5V6.25H56.25V37.5ZM87.9788 50.7153C89.1109 51.1867 90.1388 51.877 91.0034 52.7466C91.8742 53.6169 92.5649 54.6502 93.0362 55.7876C93.5075 56.9249 93.75 58.1439 93.75 59.375C93.75 60.6061 93.5075 61.8252 93.0362 62.9625C92.5649 64.0998 91.8742 65.1332 91.0034 66.0035L67.8344 89.1725C66.387 90.6283 64.6652 91.7825 62.7686 92.5682C60.8721 93.354 58.8385 93.7557 56.7856 93.75H34.375V87.5H56.7856C58.0175 87.5036 59.2378 87.2627 60.3759 86.7913C61.514 86.3198 62.5472 85.6272 63.4156 84.7535L86.5844 61.5844C87.0207 61.148 87.318 60.5922 87.4388 59.9871C87.5597 59.382 87.4987 58.7546 87.2635 58.1841C87.0284 57.6136 86.6296 57.1255 86.1174 56.7813C85.6053 56.4371 85.0027 56.2523 84.3856 56.25H84.375C83.9645 56.2489 83.5578 56.3293 83.1786 56.4864C82.7993 56.6436 82.455 56.8745 82.1656 57.1657L64.8666 74.4629C63.7088 75.6278 62.3313 76.5513 60.8139 77.18C59.2966 77.8086 57.6696 78.1298 56.0272 78.125H40.625V71.875H53.125C53.9538 71.875 54.7487 71.5458 55.3347 70.9597C55.9208 70.3737 56.25 69.5788 56.25 68.75C56.25 67.9212 55.9208 67.1264 55.3347 66.5403C54.7487 65.9543 53.9538 65.625 53.125 65.625H31.25C28.7644 65.6278 26.3815 66.6164 24.6239 68.3739C22.8663 70.1315 21.8777 72.5145 21.875 75V79.1657L11.25 93.3222L6.25 89.5722L15.625 77.0844V75C15.6299 70.8575 17.2776 66.8861 20.2068 63.9569C23.136 61.0277 27.1075 59.3799 31.25 59.375H53.125C55.486 59.382 57.7571 60.2812 59.4829 61.8924C61.2087 63.5036 62.2617 65.7076 62.4306 68.0625L77.7466 52.7466C78.6146 51.8729 79.6475 51.1802 80.7854 50.7087C81.9232 50.2372 83.1434 49.9963 84.375 50H84.4062C85.6326 50.0009 86.8466 50.244 87.9788 50.7153Z"/>
        </mask>
        <path fill-rule="evenodd" clip-rule="evenodd" d="M56.25 37.5L67.4563 26.8313L71.875 31.25L53.125 50L34.375 31.25L38.7937 26.8313L50 37.5V6.25H56.25V37.5ZM87.9788 50.7153C89.1109 51.1867 90.1388 51.877 91.0034 52.7466C91.8742 53.6169 92.5649 54.6502 93.0362 55.7876C93.5075 56.9249 93.75 58.1439 93.75 59.375C93.75 60.6061 93.5075 61.8252 93.0362 62.9625C92.5649 64.0998 91.8742 65.1332 91.0034 66.0035L67.8344 89.1725C66.387 90.6283 64.6652 91.7825 62.7686 92.5682C60.8721 93.354 58.8385 93.7557 56.7856 93.75H34.375V87.5H56.7856C58.0175 87.5036 59.2378 87.2627 60.3759 86.7913C61.514 86.3198 62.5472 85.6272 63.4156 84.7535L86.5844 61.5844C87.0207 61.148 87.318 60.5922 87.4388 59.9871C87.5597 59.382 87.4987 58.7546 87.2635 58.1841C87.0284 57.6136 86.6296 57.1255 86.1174 56.7813C85.6053 56.4371 85.0027 56.2523 84.3856 56.25H84.375C83.9645 56.2489 83.5578 56.3293 83.1786 56.4864C82.7993 56.6436 82.455 56.8745 82.1656 57.1657L64.8666 74.4629C63.7088 75.6278 62.3313 76.5513 60.8139 77.18C59.2966 77.8086 57.6696 78.1298 56.0272 78.125H40.625V71.875H53.125C53.9538 71.875 54.7487 71.5458 55.3347 70.9597C55.9208 70.3737 56.25 69.5788 56.25 68.75C56.25 67.9212 55.9208 67.1264 55.3347 66.5403C54.7487 65.9543 53.9538 65.625 53.125 65.625H31.25C28.7644 65.6278 26.3815 66.6164 24.6239 68.3739C22.8663 70.1315 21.8777 72.5145 21.875 75V79.1657L11.25 93.3222L6.25 89.5722L15.625 77.0844V75C15.6299 70.8575 17.2776 66.8861 20.2068 63.9569C23.136 61.0277 27.1075 59.3799 31.25 59.375H53.125C55.486 59.382 57.7571 60.2812 59.4829 61.8924C61.2087 63.5036 62.2617 65.7076 62.4306 68.0625L77.7466 52.7466C78.6146 51.8729 79.6475 51.1802 80.7854 50.7087C81.9232 50.2372 83.1434 49.9963 84.375 50H84.4062C85.6326 50.0009 86.8466 50.244 87.9788 50.7153Z" fill="#F7F7F7"/>
        <path d="M67.4563 26.8313L68.8705 25.417L67.4906 24.0371L66.0772 25.3827L67.4563 26.8313ZM56.25 37.5H54.25V42.1655L57.629 38.9485L56.25 37.5ZM71.875 31.25L73.2892 32.6642L74.7034 31.25L73.2892 29.8358L71.875 31.25ZM53.125 50L51.7108 51.4142L53.125 52.8284L54.5392 51.4142L53.125 50ZM34.375 31.25L32.9608 29.8358L31.5466 31.25L32.9608 32.6642L34.375 31.25ZM38.7937 26.8313L40.1728 25.3827L38.7594 24.0371L37.3795 25.417L38.7937 26.8313ZM50 37.5L48.621 38.9485L52 42.1655V37.5H50ZM50 6.25V4.25H48V6.25H50ZM56.25 6.25H58.25V4.25H56.25V6.25ZM91.0034 52.7466L89.5851 54.1567L89.5896 54.1612L91.0034 52.7466ZM87.9788 50.7153L88.7475 48.869L87.9788 50.7153ZM93.0362 62.9625L91.1886 62.1969L93.0362 62.9625ZM91.0034 66.0035L89.5896 64.5889L89.5892 64.5893L91.0034 66.0035ZM67.8344 89.1725L66.4202 87.7583L66.4161 87.7624L67.8344 89.1725ZM62.7686 92.5682L63.5341 94.4159L62.7686 92.5682ZM56.7856 93.75L56.7911 91.75H56.7856V93.75ZM34.375 93.75H32.375V95.75H34.375V93.75ZM34.375 87.5V85.5H32.375V87.5H34.375ZM56.7856 87.5L56.7915 85.5H56.7856V87.5ZM63.4156 84.7535L62.0014 83.3393L61.9972 83.3435L63.4156 84.7535ZM86.5844 61.5844L87.9986 62.9986L87.9988 62.9984L86.5844 61.5844ZM87.4388 59.9871L85.4776 59.5954L87.4388 59.9871ZM87.2635 58.1841L89.1126 57.422V57.422L87.2635 58.1841ZM86.1174 56.7813L85.0019 58.4413L85.0019 58.4413L86.1174 56.7813ZM84.3856 56.25L84.3928 54.25H84.3856V56.25ZM84.375 56.25L84.3695 58.25H84.375V56.25ZM83.1786 56.4864L83.9442 58.3341L83.9443 58.3341L83.1786 56.4864ZM82.1656 57.1657L83.5798 58.58L83.5842 58.5755L82.1656 57.1657ZM64.8666 74.4629L63.4524 73.0486L63.448 73.053L64.8666 74.4629ZM60.8139 77.18L60.0484 75.3323H60.0484L60.8139 77.18ZM56.0272 78.125L56.033 76.125H56.0272V78.125ZM40.625 78.125H38.625V80.125H40.625V78.125ZM40.625 71.875V69.875H38.625V71.875H40.625ZM55.3347 70.9597L53.9205 69.5455L53.9205 69.5455L55.3347 70.9597ZM55.3347 66.5403L53.9205 67.9545L53.9205 67.9545L55.3347 66.5403ZM31.25 65.625V63.625H31.2478L31.25 65.625ZM24.6239 68.3739L26.0381 69.7881L26.0381 69.7881L24.6239 68.3739ZM21.875 75L19.875 74.9978V75H21.875ZM21.875 79.1657L23.4746 80.3662L23.875 79.8327V79.1657H21.875ZM11.25 93.3222L10.05 94.9222L11.6495 96.1218L12.8496 94.5228L11.25 93.3222ZM6.25 89.5722L4.65056 88.3715L3.44925 89.9717L5.05 91.1722L6.25 89.5722ZM15.625 77.0844L17.2244 78.2852L17.625 77.7516V77.0844H15.625ZM15.625 75L13.625 74.9977V75H15.625ZM20.2068 63.9569L18.7926 62.5427H18.7926L20.2068 63.9569ZM31.25 59.375V57.375H31.2476L31.25 59.375ZM53.125 59.375L53.1309 57.375H53.125V59.375ZM59.4829 61.8924L60.8477 60.4305L59.4829 61.8924ZM62.4306 68.0625L60.4358 68.2057L60.7491 72.5725L63.8448 69.4768L62.4306 68.0625ZM77.7466 52.7466L79.1608 54.1608L79.1654 54.1562L77.7466 52.7466ZM80.7854 50.7087L80.0198 48.861H80.0198L80.7854 50.7087ZM84.375 50L84.369 52H84.375V50ZM84.4062 50L84.4077 48H84.4062V50ZM66.0772 25.3827L54.871 36.0515L57.629 38.9485L68.8353 28.2798L66.0772 25.3827ZM73.2892 29.8358L68.8705 25.417L66.042 28.2455L70.4608 32.6642L73.2892 29.8358ZM54.5392 51.4142L73.2892 32.6642L70.4608 29.8358L51.7108 48.5858L54.5392 51.4142ZM32.9608 32.6642L51.7108 51.4142L54.5392 48.5858L35.7892 29.8358L32.9608 32.6642ZM37.3795 25.417L32.9608 29.8358L35.7892 32.6642L40.208 28.2455L37.3795 25.417ZM51.379 36.0515L40.1728 25.3827L37.4147 28.2798L48.621 38.9485L51.379 36.0515ZM48 6.25V37.5H52V6.25H48ZM56.25 4.25H50V8.25H56.25V4.25ZM58.25 37.5V6.25H54.25V37.5H58.25ZM92.4217 51.3365C91.3714 50.2801 90.1227 49.4415 88.7475 48.869L87.2101 52.5617C88.0991 52.9318 88.9062 53.4739 89.5852 54.1567L92.4217 51.3365ZM94.8839 55.0219C94.312 53.6419 93.4739 52.388 92.4173 51.332L89.5896 54.1612C90.2745 54.8458 90.8178 55.6586 91.1886 56.5532L94.8839 55.0219ZM95.75 59.375C95.75 57.8812 95.4557 56.402 94.8839 55.0219L91.1886 56.5532C91.5592 57.4478 91.75 58.4067 91.75 59.375H95.75ZM94.8839 63.7281C95.4557 62.3481 95.75 60.8689 95.75 59.375H91.75C91.75 60.3434 91.5592 61.3023 91.1886 62.1969L94.8839 63.7281ZM92.4173 67.4181C93.4739 66.362 94.312 65.1082 94.8839 63.7281L91.1886 62.1969C90.8178 63.0915 90.2745 63.9043 89.5896 64.5889L92.4173 67.4181ZM69.2486 90.5868L92.4176 67.4177L89.5892 64.5893L66.4202 87.7583L69.2486 90.5868ZM63.5341 94.4159C65.6751 93.529 67.6188 92.226 69.2527 90.5827L66.4161 87.7624C65.1552 89.0306 63.6553 90.036 62.0031 90.7205L63.5341 94.4159ZM56.7801 95.75C59.0975 95.7564 61.3932 95.3029 63.5341 94.4159L62.0031 90.7205C60.351 91.405 58.5794 91.755 56.7911 91.75L56.7801 95.75ZM34.375 95.75H56.7856V91.75H34.375V95.75ZM32.375 87.5V93.75H36.375V87.5H32.375ZM56.7856 85.5H34.375V89.5H56.7856V85.5ZM59.6105 84.9436C58.7169 85.3137 57.7587 85.5029 56.7915 85.5L56.7798 89.5C58.2763 89.5044 59.7588 89.2118 61.1414 88.639L59.6105 84.9436ZM61.9972 83.3435C61.3153 84.0295 60.504 84.5734 59.6105 84.9436L61.1414 88.639C62.5239 88.0662 63.7791 87.2248 64.8341 86.1634L61.9972 83.3435ZM85.1702 60.1702L62.0014 83.3393L64.8298 86.1677L87.9986 62.9986L85.1702 60.1702ZM85.4776 59.5954C85.434 59.8132 85.327 60.0133 85.17 60.1704L87.9988 62.9984C88.7143 62.2827 89.2019 61.3712 89.4001 60.3789L85.4776 59.5954ZM85.4145 58.9463C85.4991 59.1517 85.5211 59.3775 85.4776 59.5954L89.4001 60.3789C89.5983 59.3865 89.4983 58.3576 89.1126 57.422L85.4145 58.9463ZM85.0019 58.4413C85.1862 58.5652 85.3298 58.7409 85.4145 58.9463L89.1126 57.422C88.727 56.4864 88.073 55.6858 87.233 55.1213L85.0019 58.4413ZM84.3784 58.25C84.6006 58.2508 84.8175 58.3174 85.0019 58.4413L87.233 55.1214C86.3931 54.5569 85.4048 54.2537 84.3928 54.2501L84.3784 58.25ZM84.375 58.25H84.3856V54.25H84.375V58.25ZM83.9443 58.3341C84.079 58.2782 84.2236 58.2496 84.3695 58.25L84.3805 54.25C83.7054 54.2482 83.0366 54.3803 82.4128 54.6388L83.9443 58.3341ZM83.5842 58.5755C83.6871 58.472 83.8094 58.3899 83.9442 58.3341L82.4129 54.6388C81.7892 54.8973 81.2229 55.277 80.747 55.7559L83.5842 58.5755ZM66.2807 75.8771L83.5798 58.58L80.7515 55.7514L63.4524 73.0486L66.2807 75.8771ZM61.5795 79.0277C63.3413 78.2977 64.9408 77.2253 66.2851 75.8727L63.448 73.053C62.4768 74.0302 61.3213 74.8049 60.0484 75.3323L61.5795 79.0277ZM56.0214 80.125C57.9284 80.1306 59.8176 79.7576 61.5795 79.0277L60.0484 75.3323C58.7756 75.8596 57.4108 76.1291 56.033 76.125L56.0214 80.125ZM40.625 80.125H56.0272V76.125H40.625V80.125ZM38.625 71.875V78.125H42.625V71.875H38.625ZM53.125 69.875H40.625V73.875H53.125V69.875ZM53.9205 69.5455C53.7095 69.7565 53.4234 69.875 53.125 69.875V73.875C54.4842 73.875 55.7878 73.3351 56.7489 72.3739L53.9205 69.5455ZM54.25 68.75C54.25 69.0484 54.1315 69.3346 53.9205 69.5455L56.7489 72.374C57.7101 71.4128 58.25 70.1093 58.25 68.75H54.25ZM53.9205 67.9545C54.1315 68.1655 54.25 68.4517 54.25 68.75H58.25C58.25 67.3908 57.71 66.0872 56.7489 65.1261L53.9205 67.9545ZM53.125 67.625C53.4234 67.625 53.7095 67.7436 53.9205 67.9545L56.7489 65.1261C55.7878 64.165 54.4842 63.625 53.125 63.625V67.625ZM31.25 67.625H53.125V63.625H31.25V67.625ZM26.0381 69.7881C27.4211 68.4051 29.2963 67.6272 31.2522 67.625L31.2478 63.625C28.2326 63.6284 25.3418 64.8276 23.2097 66.9597L26.0381 69.7881ZM23.875 75.0022C23.8771 73.0463 24.6551 71.1712 26.0381 69.7881L23.2097 66.9597C21.0776 69.0918 19.8783 71.9826 19.875 74.9978L23.875 75.0022ZM23.875 79.1657V75H19.875V79.1657H23.875ZM12.8496 94.5228L23.4746 80.3662L20.2754 77.9651L9.65041 92.1217L12.8496 94.5228ZM5.05 91.1722L10.05 94.9222L12.45 91.7222L7.45 87.9722L5.05 91.1722ZM14.0256 75.8837L4.65056 88.3715L7.84944 90.773L17.2244 78.2852L14.0256 75.8837ZM13.625 75V77.0844H17.625V75H13.625ZM18.7926 62.5427C15.4889 65.8464 13.6305 70.3256 13.625 74.9977L17.625 75.0024C17.6293 71.3895 19.0664 67.9258 21.6211 65.3711L18.7926 62.5427ZM31.2476 57.375C26.5755 57.3805 22.0963 59.239 18.7926 62.5427L21.6211 65.3711C24.1758 62.8164 27.6395 61.3793 31.2524 61.375L31.2476 57.375ZM53.125 57.375H31.25V61.375H53.125V57.375ZM60.8477 60.4305C58.753 58.4749 55.9965 57.3835 53.1309 57.375L53.1191 61.375C54.9755 61.3805 56.7611 62.0875 58.1181 63.3543L60.8477 60.4305ZM64.4255 67.9194C64.2204 65.0611 62.9424 62.386 60.8477 60.4305L58.1181 63.3543C59.475 64.6211 60.3029 66.3541 60.4358 68.2057L64.4255 67.9194ZM76.3324 51.3324L61.0164 66.6483L63.8448 69.4768L79.1608 54.1608L76.3324 51.3324ZM80.0198 48.861C78.6374 49.4339 77.3824 50.2755 76.3278 51.337L79.1654 54.1562C79.8468 53.4703 80.6577 52.9265 81.551 52.5564L80.0198 48.861ZM84.381 48C82.8846 47.9956 81.4022 48.2882 80.0198 48.861L81.551 52.5564C82.4442 52.1862 83.4021 51.9971 84.369 52L84.381 48ZM84.4062 48H84.375V52H84.4062V48ZM88.7475 48.869C87.3722 48.2964 85.8974 48.0011 84.4077 48L84.4048 52C85.3678 52.0007 86.3211 52.1916 87.2101 52.5617L88.7475 48.869Z" fill="#2274FB" mask="url(#path-1-outside-1_112_236)"/>
    </symbol>
    <symbol viewBox="0 0 100 100" fill="none" xmlns="http://www.w3.org/2000/svg" id="report">
        <mask id="path-1-outside-1_112_246" maskUnits="userSpaceOnUse" x="13.625" y="4.25" width="73" height="92" fill="black">
        <rect fill="#F7F7F7" x="13.625" y="4.25" width="73" height="92"/>
        <path fill-rule="evenodd" clip-rule="evenodd" d="M68.75 15.625H78.125C79.7826 15.625 81.3723 16.2835 82.5444 17.4556C83.7165 18.6277 84.375 20.2174 84.375 21.875V87.5C84.375 89.1576 83.7165 90.7473 82.5444 91.9194C81.3723 93.0915 79.7826 93.75 78.125 93.75H21.875C20.2174 93.75 18.6277 93.0915 17.4556 91.9194C16.2835 90.7473 15.625 89.1576 15.625 87.5V21.875C15.625 20.2174 16.2835 18.6277 17.4556 17.4556C18.6277 16.2835 20.2174 15.625 21.875 15.625H31.25V12.5C31.25 10.8424 31.9085 9.25268 33.0806 8.08058C34.2527 6.90848 35.8424 6.25 37.5 6.25H62.5C64.1576 6.25 65.7473 6.90848 66.9194 8.08058C68.0915 9.25268 68.75 10.8424 68.75 12.5V15.625ZM62.5 12.5H37.5V25H62.5V12.5ZM21.875 87.5H78.125V21.875H68.75V31.25H31.25V21.875H21.875V87.5ZM31.25 40.625H68.75V46.875H31.25V40.625ZM31.25 56.25H56.25V62.5H31.25V56.25ZM46.875 71.875H31.25V78.125H46.875V71.875Z"/>
        </mask>
        <path fill-rule="evenodd" clip-rule="evenodd" d="M68.75 15.625H78.125C79.7826 15.625 81.3723 16.2835 82.5444 17.4556C83.7165 18.6277 84.375 20.2174 84.375 21.875V87.5C84.375 89.1576 83.7165 90.7473 82.5444 91.9194C81.3723 93.0915 79.7826 93.75 78.125 93.75H21.875C20.2174 93.75 18.6277 93.0915 17.4556 91.9194C16.2835 90.7473 15.625 89.1576 15.625 87.5V21.875C15.625 20.2174 16.2835 18.6277 17.4556 17.4556C18.6277 16.2835 20.2174 15.625 21.875 15.625H31.25V12.5C31.25 10.8424 31.9085 9.25268 33.0806 8.08058C34.2527 6.90848 35.8424 6.25 37.5 6.25H62.5C64.1576 6.25 65.7473 6.90848 66.9194 8.08058C68.0915 9.25268 68.75 10.8424 68.75 12.5V15.625ZM62.5 12.5H37.5V25H62.5V12.5ZM21.875 87.5H78.125V21.875H68.75V31.25H31.25V21.875H21.875V87.5ZM31.25 40.625H68.75V46.875H31.25V40.625ZM31.25 56.25H56.25V62.5H31.25V56.25ZM46.875 71.875H31.25V78.125H46.875V71.875Z" fill="#F7F7F7"/>
        <path d="M68.75 15.625H66.75V17.625H68.75V15.625ZM82.5444 17.4556L81.1302 18.8698V18.8698L82.5444 17.4556ZM17.4556 91.9194L18.8698 90.5052H18.8698L17.4556 91.9194ZM17.4556 17.4556L18.8698 18.8698L18.8698 18.8698L17.4556 17.4556ZM31.25 15.625V17.625H33.25V15.625H31.25ZM33.0806 8.08058L34.4948 9.4948L33.0806 8.08058ZM66.9194 8.08058L65.5052 9.49479L65.5052 9.4948L66.9194 8.08058ZM37.5 12.5V10.5H35.5V12.5H37.5ZM62.5 12.5H64.5V10.5H62.5V12.5ZM37.5 25H35.5V27H37.5V25ZM62.5 25V27H64.5V25H62.5ZM78.125 87.5V89.5H80.125V87.5H78.125ZM21.875 87.5H19.875V89.5H21.875V87.5ZM78.125 21.875H80.125V19.875H78.125V21.875ZM68.75 21.875V19.875H66.75V21.875H68.75ZM68.75 31.25V33.25H70.75V31.25H68.75ZM31.25 31.25H29.25V33.25H31.25V31.25ZM31.25 21.875H33.25V19.875H31.25V21.875ZM21.875 21.875V19.875H19.875V21.875H21.875ZM68.75 40.625H70.75V38.625H68.75V40.625ZM31.25 40.625V38.625H29.25V40.625H31.25ZM68.75 46.875V48.875H70.75V46.875H68.75ZM31.25 46.875H29.25V48.875H31.25V46.875ZM56.25 56.25H58.25V54.25H56.25V56.25ZM31.25 56.25V54.25H29.25V56.25H31.25ZM56.25 62.5V64.5H58.25V62.5H56.25ZM31.25 62.5H29.25V64.5H31.25V62.5ZM31.25 71.875V69.875H29.25V71.875H31.25ZM46.875 71.875H48.875V69.875H46.875V71.875ZM31.25 78.125H29.25V80.125H31.25V78.125ZM46.875 78.125V80.125H48.875V78.125H46.875ZM78.125 13.625H68.75V17.625H78.125V13.625ZM83.9586 16.0414C82.4115 14.4942 80.313 13.625 78.125 13.625V17.625C79.2522 17.625 80.3332 18.0728 81.1302 18.8698L83.9586 16.0414ZM86.375 21.875C86.375 19.687 85.5058 17.5885 83.9586 16.0414L81.1302 18.8698C81.9272 19.6668 82.375 20.7478 82.375 21.875H86.375ZM86.375 87.5V21.875H82.375V87.5H86.375ZM83.9586 93.3336C85.5058 91.7865 86.375 89.688 86.375 87.5H82.375C82.375 88.6272 81.9272 89.7082 81.1302 90.5052L83.9586 93.3336ZM78.125 95.75C80.313 95.75 82.4115 94.8808 83.9586 93.3336L81.1302 90.5052C80.3332 91.3022 79.2522 91.75 78.125 91.75V95.75ZM21.875 95.75H78.125V91.75H21.875V95.75ZM16.0414 93.3336C17.5885 94.8808 19.687 95.75 21.875 95.75V91.75C20.7478 91.75 19.6668 91.3022 18.8698 90.5052L16.0414 93.3336ZM13.625 87.5C13.625 89.688 14.4942 91.7865 16.0414 93.3336L18.8698 90.5052C18.0728 89.7082 17.625 88.6272 17.625 87.5H13.625ZM13.625 21.875V87.5H17.625V21.875H13.625ZM16.0414 16.0414C14.4942 17.5885 13.625 19.687 13.625 21.875H17.625C17.625 20.7478 18.0728 19.6668 18.8698 18.8698L16.0414 16.0414ZM21.875 13.625C19.687 13.625 17.5885 14.4942 16.0414 16.0414L18.8698 18.8698C19.6668 18.0728 20.7478 17.625 21.875 17.625V13.625ZM31.25 13.625H21.875V17.625H31.25V13.625ZM29.25 12.5V15.625H33.25V12.5H29.25ZM31.6664 6.66637C30.1192 8.21354 29.25 10.312 29.25 12.5H33.25C33.25 11.3728 33.6978 10.2918 34.4948 9.4948L31.6664 6.66637ZM37.5 4.25C35.312 4.25 33.2135 5.11919 31.6664 6.66637L34.4948 9.4948C35.2918 8.69777 36.3728 8.25 37.5 8.25V4.25ZM62.5 4.25H37.5V8.25H62.5V4.25ZM68.3336 6.66637C66.7865 5.11919 64.688 4.25 62.5 4.25V8.25C63.6272 8.25 64.7082 8.69777 65.5052 9.49479L68.3336 6.66637ZM70.75 12.5C70.75 10.312 69.8808 8.21354 68.3336 6.66637L65.5052 9.4948C66.3022 10.2918 66.75 11.3728 66.75 12.5H70.75ZM70.75 15.625V12.5H66.75V15.625H70.75ZM37.5 14.5H62.5V10.5H37.5V14.5ZM39.5 25V12.5H35.5V25H39.5ZM62.5 23H37.5V27H62.5V23ZM60.5 12.5V25H64.5V12.5H60.5ZM78.125 85.5H21.875V89.5H78.125V85.5ZM76.125 21.875V87.5H80.125V21.875H76.125ZM68.75 23.875H78.125V19.875H68.75V23.875ZM70.75 31.25V21.875H66.75V31.25H70.75ZM31.25 33.25H68.75V29.25H31.25V33.25ZM29.25 21.875V31.25H33.25V21.875H29.25ZM21.875 23.875H31.25V19.875H21.875V23.875ZM23.875 87.5V21.875H19.875V87.5H23.875ZM68.75 38.625H31.25V42.625H68.75V38.625ZM70.75 46.875V40.625H66.75V46.875H70.75ZM31.25 48.875H68.75V44.875H31.25V48.875ZM29.25 40.625V46.875H33.25V40.625H29.25ZM56.25 54.25H31.25V58.25H56.25V54.25ZM58.25 62.5V56.25H54.25V62.5H58.25ZM31.25 64.5H56.25V60.5H31.25V64.5ZM29.25 56.25V62.5H33.25V56.25H29.25ZM31.25 73.875H46.875V69.875H31.25V73.875ZM33.25 78.125V71.875H29.25V78.125H33.25ZM46.875 76.125H31.25V80.125H46.875V76.125ZM44.875 71.875V78.125H48.875V71.875H44.875Z" fill="#2274FB" mask="url(#path-1-outside-1_112_246)"/>
    </symbol>
    <symbol viewBox="0 0 36 36" fill="none" xmlns="http://www.w3.org/2000/svg" id="facebook-light">
        <path fill-rule="evenodd" clip-rule="evenodd" d="M0 18C0 8.05888 8.05888 0 18 0C27.9411 0 36 8.05888 36 18C36 27.9411 27.9411 36 18 36C8.05888 36 0 27.9411 0 18ZM18 9C22.95 9 27 13.05 27 18C27 22.5 23.7375 26.325 19.2375 27V20.5875H21.375L21.825 18H19.35V16.3125C19.35 15.6375 19.6875 14.9625 20.8125 14.9625H21.9375V12.7125C21.9375 12.7125 20.925 12.4875 19.9125 12.4875C17.8875 12.4875 16.5375 13.725 16.5375 15.975V18H14.2875V20.5875H16.5375V26.8875C12.2625 26.2125 9 22.5 9 18C9 13.05 13.05 9 18 9Z" fill="#F7F7F7"/>
    </symbol>
    <symbol viewBox="0 0 36 36" fill="none" xmlns="http://www.w3.org/2000/svg" id="twitter-light">
        <path fill-rule="evenodd" clip-rule="evenodd" d="M0 18C0 8.05888 8.05888 0 18 0C27.9411 0 36 8.05888 36 18C36 27.9411 27.9411 36 18 36C8.05888 36 0 27.9411 0 18ZM24.8625 12.9375C25.65 12.825 26.325 12.7125 27 12.375C26.55 13.1625 25.875 13.8375 25.0875 14.2875C25.3125 19.575 21.4875 25.3125 14.625 25.3125C12.6 25.3125 10.6875 24.6375 9 23.625C10.9125 23.85 12.9375 23.2875 14.2875 22.275C12.6 22.275 11.25 21.15 10.8 19.6875C11.3625 19.8 11.925 19.6875 12.4875 19.575C10.8 19.125 9.5625 17.55 9.5625 15.8625C10.125 16.0875 10.6875 16.3125 11.25 16.3125C9.675 15.1875 9.1125 13.05 10.125 11.3625C12.0375 13.6125 14.7375 15.075 17.775 15.1875C17.2125 12.9375 19.0125 10.6875 21.375 10.6875C22.3875 10.6875 23.4 11.1375 24.075 11.8125C24.975 11.5875 25.7625 11.3625 26.4375 10.9125C26.2125 11.8125 25.65 12.4875 24.8625 12.9375Z" fill="#F7F7F7"/>
    </symbol>
    <symbol viewBox="0 0 36 36" fill="none" xmlns="http://www.w3.org/2000/svg" id="linkedin-light">
        <path fill-rule="evenodd" clip-rule="evenodd" d="M0 18C0 8.05888 8.05888 0 18 0C27.9411 0 36 8.05888 36 18C36 27.9411 27.9411 36 18 36C8.05888 36 0 27.9411 0 18ZM9.225 14.9625V27H13.05V14.9625H9.225ZM9 11.1375C9 12.375 9.9 13.275 11.1375 13.275C12.375 13.275 13.275 12.375 13.275 11.1375C13.275 9.9 12.375 9 11.1375 9C10.0125 9 9 9.9 9 11.1375ZM23.175 27H26.775V19.575C26.775 15.8625 24.525 14.625 22.3875 14.625C20.475 14.625 19.125 15.8625 18.7875 16.65V14.9625H15.1875V27H19.0125V20.5875C19.0125 18.9 20.1375 18 21.2625 18C22.3875 18 23.175 18.5625 23.175 20.475V27Z" fill="#F7F7F7"/>
    </symbol>
    <symbol viewBox="0 0 36 36" fill="none"  xmlns="http://www.w3.org/2000/svg" id="instagram-light">
        <path d="M18 21.15C16.3125 21.15 14.85 19.8 14.85 18C14.85 16.3125 16.2 14.85 18 14.85C19.6875 14.85 21.15 16.2 21.15 18C21.15 19.6875 19.6875 21.15 18 21.15Z" fill="#F7F7F7"/>
        <path fill-rule="evenodd" clip-rule="evenodd" d="M21.825 10.35H14.175C13.275 10.4625 12.825 10.575 12.4875 10.6875C12.0375 10.8 11.7 11.025 11.3625 11.3625C11.0954 11.6296 10.9693 11.8966 10.8167 12.2194C10.7766 12.3045 10.7344 12.3937 10.6875 12.4875C10.6701 12.5397 10.65 12.5946 10.6285 12.6535C10.5108 12.975 10.35 13.4142 10.35 14.175V21.825C10.4625 22.725 10.575 23.175 10.6875 23.5125C10.8 23.9625 11.025 24.3 11.3625 24.6375C11.6296 24.9046 11.8966 25.0307 12.2194 25.1833C12.3046 25.2235 12.3936 25.2655 12.4875 25.3125C12.5397 25.3299 12.5946 25.35 12.6535 25.3715C12.975 25.4892 13.4142 25.65 14.175 25.65H21.825C22.725 25.5375 23.175 25.425 23.5125 25.3125C23.9625 25.2 24.3 24.975 24.6375 24.6375C24.9046 24.3704 25.0307 24.1034 25.1833 23.7806C25.2235 23.6955 25.2656 23.6064 25.3125 23.5125C25.3299 23.4603 25.35 23.4054 25.3715 23.3465C25.4892 23.025 25.65 22.5858 25.65 21.825V14.175C25.5375 13.275 25.425 12.825 25.3125 12.4875C25.2 12.0375 24.975 11.7 24.6375 11.3625C24.3704 11.0954 24.1034 10.9693 23.7806 10.8167C23.6956 10.7766 23.6063 10.7344 23.5125 10.6875C23.4603 10.6701 23.4054 10.65 23.3465 10.6285C23.025 10.5108 22.5858 10.35 21.825 10.35ZM18 13.1625C15.3 13.1625 13.1625 15.3 13.1625 18C13.1625 20.7 15.3 22.8375 18 22.8375C20.7 22.8375 22.8375 20.7 22.8375 18C22.8375 15.3 20.7 13.1625 18 13.1625ZM24.075 13.05C24.075 13.6713 23.5713 14.175 22.95 14.175C22.3287 14.175 21.825 13.6713 21.825 13.05C21.825 12.4287 22.3287 11.925 22.95 11.925C23.5713 11.925 24.075 12.4287 24.075 13.05Z" fill="#F7F7F7"/>
        <path fill-rule="evenodd" clip-rule="evenodd" d="M0 18C0 8.05888 8.05888 0 18 0C27.9411 0 36 8.05888 36 18C36 27.9411 27.9411 36 18 36C8.05888 36 0 27.9411 0 18ZM14.175 8.6625H21.825C22.8375 8.775 23.5125 8.8875 24.075 9.1125C24.75 9.45 25.2 9.675 25.7625 10.2375C26.325 10.8 26.6625 11.3625 26.8875 11.925C27.1125 12.4875 27.3375 13.1625 27.3375 14.175V21.825C27.225 22.8375 27.1125 23.5125 26.8875 24.075C26.55 24.75 26.325 25.2 25.7625 25.7625C25.2 26.325 24.6375 26.6625 24.075 26.8875C23.5125 27.1125 22.8375 27.3375 21.825 27.3375H14.175C13.1625 27.225 12.4875 27.1125 11.925 26.8875C11.25 26.55 10.8 26.325 10.2375 25.7625C9.675 25.2 9.3375 24.6375 9.1125 24.075C8.8875 23.5125 8.6625 22.8375 8.6625 21.825V14.175C8.775 13.1625 8.8875 12.4875 9.1125 11.925C9.45 11.25 9.675 10.8 10.2375 10.2375C10.8 9.675 11.3625 9.3375 11.925 9.1125C12.4875 8.8875 13.1625 8.6625 14.175 8.6625Z" fill="#F7F7F7"/>
    </symbol>
    <symbol viewBox="0 0 35 35" fill="none" xmlns="http://www.w3.org/2000/svg" id="facebook-dark">
        <rect x="5.8335" y="5.83337" width="23.3333" height="23.3333" fill="#333333"/>
        <path fill-rule="evenodd" clip-rule="evenodd" d="M0 17.5C0 7.83502 7.83502 0 17.5 0C27.165 0 35 7.83502 35 17.5C35 27.165 27.165 35 17.5 35C7.83502 35 0 27.165 0 17.5ZM17.5 8.75C22.3125 8.75 26.25 12.6875 26.25 17.5C26.25 21.875 23.0781 25.5937 18.7031 26.25V20.0156H20.7812L21.2187 17.5H18.8125V15.8594C18.8125 15.2031 19.1406 14.5469 20.2344 14.5469H21.3281V12.3594C21.3281 12.3594 20.3438 12.1406 19.3594 12.1406C17.3906 12.1406 16.0781 13.3437 16.0781 15.5312V17.5H13.8906V20.0156H16.0781V26.1406C11.9219 25.4844 8.75 21.875 8.75 17.5C8.75 12.6875 12.6875 8.75 17.5 8.75Z" fill="#F7F7F7"/>
    </symbol>
    <symbol viewBox="0 0 35 35" fill="none" xmlns="http://www.w3.org/2000/svg" id="twitter-dark">
        <rect x="5.8335" y="5.83337" width="23.3333" height="23.3333" fill="#333333"/>
        <path fill-rule="evenodd" clip-rule="evenodd" d="M0 17.5C0 7.83502 7.83502 0 17.5 0C27.165 0 35 7.83502 35 17.5C35 27.165 27.165 35 17.5 35C7.83502 35 0 27.165 0 17.5ZM24.1719 12.5781C24.9375 12.4687 25.5937 12.3594 26.25 12.0312C25.8125 12.7969 25.1562 13.4531 24.3906 13.8906C24.6094 19.0312 20.8906 24.6094 14.2188 24.6094C12.25 24.6094 10.3906 23.9531 8.75 22.9688C10.6094 23.1875 12.5781 22.6406 13.8906 21.6562C12.25 21.6562 10.9375 20.5625 10.5 19.1406C11.0469 19.25 11.5938 19.1406 12.1406 19.0312C10.5 18.5938 9.29688 17.0625 9.29688 15.4219C9.84375 15.6406 10.3906 15.8594 10.9375 15.8594C9.40625 14.7656 8.85938 12.6875 9.84375 11.0469C11.7031 13.2344 14.3281 14.6562 17.2813 14.7656C16.7344 12.5781 18.4844 10.3906 20.7812 10.3906C21.7656 10.3906 22.75 10.8281 23.4062 11.4844C24.2812 11.2656 25.0469 11.0469 25.7031 10.6094C25.4844 11.4844 24.9375 12.1406 24.1719 12.5781Z" fill="#F7F7F7"/>
    </symbol>
    <symbol viewBox="0 0 35 35" fill="none" xmlns="http://www.w3.org/2000/svg" id="linkedin-dark">
        <rect x="5.8335" y="5.83337" width="23.3333" height="23.3333" fill="#333333"/>
        <path fill-rule="evenodd" clip-rule="evenodd" d="M0 17.5C0 7.83502 7.83502 0 17.5 0C27.165 0 35 7.83502 35 17.5C35 27.165 27.165 35 17.5 35C7.83502 35 0 27.165 0 17.5ZM8.96875 14.5469V26.25H12.6875V14.5469H8.96875ZM8.75 10.8281C8.75 12.0312 9.625 12.9063 10.8281 12.9063C12.0312 12.9063 12.9063 12.0312 12.9063 10.8281C12.9063 9.625 12.0312 8.75 10.8281 8.75C9.73438 8.75 8.75 9.625 8.75 10.8281ZM22.5313 26.25H26.0313V19.0313C26.0313 15.4219 23.8437 14.2188 21.7656 14.2188C19.9062 14.2188 18.5938 15.4219 18.2656 16.1875V14.5469H14.7656V26.25H18.4844V20.0156C18.4844 18.375 19.5781 17.5 20.6719 17.5C21.7656 17.5 22.5313 18.0469 22.5313 19.9062V26.25Z" fill="#F7F7F7"/>
    </symbol>
    <symbol viewBox="0 0 35 35" fill="none" xmlns="http://www.w3.org/2000/svg" id="instagram-dark">
        <rect x="5.8335" y="5.83337" width="23.3333" height="23.3333" fill="#333333"/>
        <path d="M17.5 20.5625C15.8594 20.5625 14.4375 19.25 14.4375 17.5C14.4375 15.8594 15.75 14.4375 17.5 14.4375C19.1406 14.4375 20.5625 15.75 20.5625 17.5C20.5625 19.1406 19.1406 20.5625 17.5 20.5625Z" fill="#F7F7F7"/>
        <path fill-rule="evenodd" clip-rule="evenodd" d="M21.2187 10.0625H13.7813C12.9063 10.1719 12.4688 10.2812 12.1406 10.3906C11.7031 10.5 11.375 10.7187 11.0469 11.0469C10.7872 11.3065 10.6646 11.5662 10.5163 11.88C10.4772 11.9627 10.4362 12.0494 10.3906 12.1406C10.3737 12.1914 10.3542 12.2448 10.3332 12.302C10.2188 12.6146 10.0625 13.0416 10.0625 13.7812V21.2187C10.1719 22.0937 10.2812 22.5312 10.3906 22.8594C10.5 23.2969 10.7188 23.625 11.0469 23.9531C11.3065 24.2128 11.5662 24.3354 11.88 24.4837C11.9628 24.5228 12.0493 24.5637 12.1406 24.6094C12.1914 24.6263 12.2448 24.6458 12.302 24.6668C12.6146 24.7812 13.0416 24.9375 13.7813 24.9375H21.2187C22.0937 24.8281 22.5313 24.7187 22.8594 24.6094C23.2969 24.5 23.625 24.2812 23.9531 23.9531C24.2128 23.6935 24.3354 23.4338 24.4837 23.12C24.5228 23.0373 24.5637 22.9507 24.6094 22.8594C24.6263 22.8086 24.6458 22.7552 24.6668 22.698C24.7812 22.3854 24.9375 21.9584 24.9375 21.2187V13.7812C24.8281 12.9062 24.7188 12.4687 24.6094 12.1406C24.5 11.7031 24.2812 11.375 23.9531 11.0469C23.6935 10.7872 23.4338 10.6646 23.12 10.5163C23.0374 10.4772 22.9505 10.4362 22.8594 10.3906C22.8086 10.3737 22.7552 10.3542 22.698 10.3332C22.3854 10.2188 21.9584 10.0625 21.2187 10.0625ZM17.5 12.7969C14.875 12.7969 12.7969 14.875 12.7969 17.5C12.7969 20.125 14.875 22.2031 17.5 22.2031C20.125 22.2031 22.2031 20.125 22.2031 17.5C22.2031 14.875 20.125 12.7969 17.5 12.7969ZM23.4062 12.6875C23.4062 13.2916 22.9166 13.7812 22.3125 13.7812C21.7084 13.7812 21.2187 13.2916 21.2187 12.6875C21.2187 12.0834 21.7084 11.5937 22.3125 11.5937C22.9166 11.5937 23.4062 12.0834 23.4062 12.6875Z" fill="#F7F7F7"/>
        <path fill-rule="evenodd" clip-rule="evenodd" d="M0 17.5C0 7.83502 7.83502 0 17.5 0C27.165 0 35 7.83502 35 17.5C35 27.165 27.165 35 17.5 35C7.83502 35 0 27.165 0 17.5ZM13.7813 8.42187H21.2187C22.2031 8.53125 22.8594 8.64062 23.4062 8.85937C24.0625 9.1875 24.5 9.40625 25.0469 9.95312C25.5937 10.5 25.9219 11.0469 26.1406 11.5937C26.3594 12.1406 26.5781 12.7969 26.5781 13.7812V21.2187C26.4687 22.2031 26.3594 22.8594 26.1406 23.4062C25.8125 24.0625 25.5937 24.5 25.0469 25.0469C24.5 25.5937 23.9531 25.9219 23.4062 26.1406C22.8594 26.3594 22.2031 26.5781 21.2187 26.5781H13.7813C12.7969 26.4687 12.1406 26.3594 11.5938 26.1406C10.9375 25.8125 10.5 25.5937 9.95313 25.0469C9.40625 24.5 9.07813 23.9531 8.85938 23.4062C8.64063 22.8594 8.42187 22.2031 8.42187 21.2187V13.7812C8.53125 12.7969 8.64063 12.1406 8.85938 11.5937C9.1875 10.9375 9.40625 10.5 9.95313 9.95312C10.5 9.40625 11.0469 9.07812 11.5938 8.85937C12.1406 8.64062 12.7969 8.42187 13.7813 8.42187Z" fill="#F7F7F7"/>
    </symbol>
</svg>